<svg width="128" height="17" viewBox="0 0 128 17" fill="none" xmlns="http://www.w3.org/2000/svg">
<path d="M0.74 13.96L2.2 13.56V5.94C2.2 5.59333 2.17333 5.36667 2.12 5.26C2.06667 5.14 1.92667 5.03333 1.7 4.94L0.66 4.36L0.78 2.74C1.79333 2.58 2.75333 2.46667 3.66 2.4C4.56667 2.32 5.54 2.28 6.58 2.28C8.02 2.28 9.17333 2.43333 10.04 2.74C10.92 3.04667 11.56 3.52667 11.96 4.18C12.3733 4.83333 12.58 5.7 12.58 6.78C12.58 8.18 12.0733 9.28 11.06 10.08C10.06 10.88 8.68667 11.28 6.94 11.28L5.84 11.24V12.76C5.84 13.08 5.86 13.2867 5.9 13.38C5.95333 13.4733 6.07333 13.5667 6.26 13.66L7.48 14.38L7.4 16H0.84L0.74 13.96ZM7.12 9.06C7.84 9.06 8.36667 8.98667 8.7 8.84C8.84667 8.18667 8.92 7.5 8.92 6.78C8.92 5.99333 8.76667 5.43333 8.46 5.1C8.16667 4.76667 7.68667 4.6 7.02 4.6C6.79333 4.6 6.4 4.62667 5.84 4.68V8.94C6.2 9.02 6.62667 9.06 7.12 9.06ZM14.5822 1.2L17.9822 0.299999L18.8022 3.34L15.4222 4.26L14.5822 1.2ZM13.7422 14.16L15.1422 13.74V8.88C15.1422 8.58667 15.1155 8.4 15.0622 8.32C15.0222 8.22667 14.9089 8.12667 14.7222 8.02L13.8422 7.54L13.9422 6.04C15.0489 5.82667 15.9022 5.67333 16.5022 5.58C17.1155 5.47333 17.6755 5.41333 18.1822 5.4C18.3555 5.97333 18.4622 6.4 18.5022 6.68V13.08C18.5022 13.36 18.5222 13.5467 18.5622 13.64C18.6022 13.7333 18.7155 13.8333 18.9022 13.94L19.8822 14.5L19.8022 16H13.8022L13.7422 14.16ZM25.3558 16.26C23.8091 16.26 22.6091 15.7867 21.7558 14.84C20.9024 13.88 20.4758 12.56 20.4758 10.88C20.4758 9.13333 20.9291 7.77333 21.8358 6.8C22.7558 5.82667 24.0091 5.34 25.5958 5.34C26.7958 5.34 28.0824 5.61333 29.4558 6.16C29.4291 6.54667 29.3691 7.06 29.2758 7.7C29.1824 8.32667 29.0824 8.90667 28.9758 9.44L27.6358 9.56L26.3958 7.98C26.0624 7.91333 25.6891 7.88 25.2758 7.88C24.9424 7.88 24.6358 7.9 24.3558 7.94C24.0491 8.52667 23.8958 9.35333 23.8958 10.42C23.8958 11.5133 24.0891 12.3267 24.4758 12.86C24.8624 13.38 25.4491 13.64 26.2358 13.64C26.6091 13.64 27.0624 13.5867 27.5958 13.48C28.1291 13.36 28.6758 13.1933 29.2358 12.98L29.7158 14.98C29.1824 15.3533 28.5158 15.66 27.7158 15.9C26.9291 16.14 26.1424 16.26 25.3558 16.26ZM34.4739 16.34C33.4206 16.34 32.2006 16.1533 30.8139 15.78C30.8939 14.4733 30.9806 13.5067 31.0739 12.88L32.2139 12.66L33.4739 14C33.9139 14.1333 34.4072 14.2 34.9539 14.2C35.2606 14.2 35.5006 14.18 35.6739 14.14C35.7139 14.0333 35.7339 13.8867 35.7339 13.7C35.7339 13.54 35.6939 13.4067 35.6139 13.3C35.5472 13.1933 35.3872 13.0667 35.1339 12.92C34.8806 12.7733 34.4406 12.5467 33.8139 12.24C33.0272 11.8267 32.4272 11.46 32.0139 11.14C31.6006 10.8067 31.3006 10.4667 31.1139 10.12C30.9406 9.77333 30.8539 9.36 30.8539 8.88C30.8539 7.81333 31.2472 6.96667 32.0339 6.34C32.8339 5.71333 33.9139 5.4 35.2739 5.4C35.8339 5.4 36.4206 5.46667 37.0339 5.6C37.6606 5.72 38.2206 5.88667 38.7139 6.1C38.7139 6.96667 38.6539 7.93333 38.5339 9L37.4939 9.16L36.1539 7.72C35.8072 7.61333 35.3006 7.56 34.6339 7.56C34.5272 7.56 34.3139 7.57333 33.9939 7.6C33.9539 7.68 33.9339 7.80667 33.9339 7.98C33.9339 8.16667 33.9872 8.33333 34.0939 8.48C34.2006 8.61333 34.3872 8.76667 34.6539 8.94C34.9339 9.1 35.3739 9.33333 35.9739 9.64C36.8539 10.0667 37.5139 10.44 37.9539 10.76C38.4072 11.0667 38.7206 11.38 38.8939 11.7C39.0806 12.02 39.1739 12.4067 39.1739 12.86C39.1739 13.9533 38.7539 14.8067 37.9139 15.42C37.0872 16.0333 35.9406 16.34 34.4739 16.34ZM48.0338 16.26C46.8604 16.26 45.9938 15.9733 45.4338 15.4C44.8738 14.8133 44.5938 13.9267 44.5938 12.74V7.88H43.1937V6.42L46.7938 3.14L47.9538 3.28V5.54H51.3138V7.9H47.9538V12.02C47.9538 12.66 48.0404 13.0867 48.2138 13.3C48.4004 13.5133 48.7538 13.62 49.2738 13.62C49.7138 13.62 50.3271 13.56 51.1138 13.44L51.3538 15.48C50.8738 15.7067 50.3338 15.8933 49.7338 16.04C49.1471 16.1867 48.5804 16.26 48.0338 16.26ZM57.2541 16.26C55.5607 16.26 54.2941 15.8267 53.4541 14.96C52.6274 14.0933 52.2141 12.7667 52.2141 10.98C52.2141 9.83333 52.4207 8.83333 52.8341 7.98C53.2607 7.12667 53.8674 6.47333 54.6541 6.02C55.4407 5.56667 56.3674 5.34 57.4341 5.34C60.8874 5.34 62.6141 7.12667 62.6141 10.7C62.6141 12.4467 62.1407 13.8133 61.1941 14.8C60.2607 15.7733 58.9474 16.26 57.2541 16.26ZM57.5741 13.92C57.8407 13.92 58.0741 13.9 58.2741 13.86C58.4741 13.8067 58.6874 13.7267 58.9141 13.62C58.9941 13.3133 59.0607 12.92 59.1141 12.44C59.1674 11.96 59.1941 11.5 59.1941 11.06C59.1941 9.98 59.0207 9.16 58.6741 8.6C58.3407 8.04 57.8407 7.76 57.1741 7.76C56.7341 7.76 56.2874 7.82 55.8341 7.94C55.7407 8.14 55.6674 8.46667 55.6141 8.92C55.5607 9.36 55.5341 9.86667 55.5341 10.44C55.5341 11.56 55.7074 12.42 56.0541 13.02C56.4141 13.62 56.9207 13.92 57.5741 13.92ZM67.3714 4.86L66.6914 3.92L66.7714 2.52H72.5114L72.6314 4.42L71.1914 4.8L73.6714 12.54L75.6514 6.38L74.7714 3.8L74.8514 2.52H80.1714L80.2914 4.42L78.9714 4.8L81.4314 12.54L83.7314 5.46C83.7714 5.35333 83.7914 5.26 83.7914 5.18C83.7914 5.00667 83.7047 4.89333 83.5314 4.84L82.1714 4.28L82.2914 2.52H87.5314L87.6314 4.22L86.8114 5.34L82.6114 16.08L79.1114 16.42L77.0114 10.3L74.8514 16.08L71.1514 16.42L67.3714 4.86ZM92.2736 16.26C90.5803 16.26 89.3136 15.8267 88.4736 14.96C87.6469 14.0933 87.2336 12.7667 87.2336 10.98C87.2336 9.83333 87.4403 8.83333 87.8536 7.98C88.2803 7.12667 88.8869 6.47333 89.6736 6.02C90.4603 5.56667 91.3869 5.34 92.4536 5.34C95.9069 5.34 97.6336 7.12667 97.6336 10.7C97.6336 12.4467 97.1603 13.8133 96.2136 14.8C95.2803 15.7733 93.9669 16.26 92.2736 16.26ZM92.5936 13.92C92.8603 13.92 93.0936 13.9 93.2936 13.86C93.4936 13.8067 93.7069 13.7267 93.9336 13.62C94.0136 13.3133 94.0803 12.92 94.1336 12.44C94.1869 11.96 94.2136 11.5 94.2136 11.06C94.2136 9.98 94.0403 9.16 93.6936 8.6C93.3603 8.04 92.8603 7.76 92.1936 7.76C91.7536 7.76 91.3069 7.82 90.8536 7.94C90.7603 8.14 90.6869 8.46667 90.6336 8.92C90.5803 9.36 90.5536 9.86667 90.5536 10.44C90.5536 11.56 90.7269 12.42 91.0736 13.02C91.4336 13.62 91.9403 13.92 92.5936 13.92ZM98.5283 14.1L99.7483 13.74V8.88C99.7483 8.58667 99.7283 8.4 99.6883 8.32C99.6483 8.22667 99.5416 8.12667 99.3683 8.02L98.4883 7.54L98.5483 6.04C98.7749 5.98667 98.9683 5.95333 99.1283 5.94C100.742 5.60667 101.935 5.42667 102.708 5.4C102.828 5.74667 102.942 6.18 103.048 6.7C103.848 6.07333 104.528 5.64 105.088 5.4H106.228C106.215 5.90667 106.182 6.46 106.128 7.06C106.075 7.64667 106.008 8.12 105.928 8.48C105.448 8.45333 105.095 8.44 104.868 8.44C104.308 8.44 103.728 8.47333 103.128 8.54V13.08C103.128 13.36 103.148 13.5467 103.188 13.64C103.228 13.7333 103.335 13.8333 103.508 13.94L104.708 14.58L104.628 16H98.6283L98.5283 14.1ZM110.884 16.26C109.604 16.26 108.604 15.78 107.884 14.82C107.164 13.86 106.804 12.5733 106.804 10.96C106.804 9.10667 107.291 7.70667 108.264 6.76C109.251 5.81333 110.651 5.34 112.464 5.34C112.571 5.34 112.917 5.35333 113.504 5.38V4.18C113.504 3.88667 113.484 3.69333 113.444 3.6C113.404 3.50667 113.291 3.40667 113.104 3.3L112.204 2.84L112.304 1.32C113.584 1.09333 114.531 0.939999 115.144 0.859999C115.757 0.766666 116.244 0.713332 116.604 0.699999C116.724 1.00667 116.811 1.35333 116.864 1.74V13.12C116.864 13.36 116.884 13.5267 116.924 13.62C116.977 13.7133 117.091 13.8067 117.264 13.9L118.024 14.36L117.944 15.6C116.637 15.9333 115.357 16.1333 114.104 16.2C114.011 15.9467 113.917 15.64 113.824 15.28C112.917 15.9333 111.937 16.26 110.884 16.26ZM112.044 13.7C112.484 13.7 112.977 13.5533 113.524 13.26V8.08C113.124 7.90667 112.611 7.82 111.984 7.82C111.477 7.82 110.991 7.88667 110.524 8.02C110.417 8.27333 110.331 8.62 110.264 9.06C110.211 9.5 110.184 9.98667 110.184 10.52C110.184 11.6133 110.331 12.42 110.624 12.94C110.931 13.4467 111.404 13.7 112.044 13.7ZM122.501 16.34C121.448 16.34 120.228 16.1533 118.841 15.78C118.921 14.4733 119.008 13.5067 119.101 12.88L120.241 12.66L121.501 14C121.941 14.1333 122.435 14.2 122.981 14.2C123.288 14.2 123.528 14.18 123.701 14.14C123.741 14.0333 123.761 13.8867 123.761 13.7C123.761 13.54 123.721 13.4067 123.641 13.3C123.575 13.1933 123.415 13.0667 123.161 12.92C122.908 12.7733 122.468 12.5467 121.841 12.24C121.055 11.8267 120.455 11.46 120.041 11.14C119.628 10.8067 119.328 10.4667 119.141 10.12C118.968 9.77333 118.881 9.36 118.881 8.88C118.881 7.81333 119.275 6.96667 120.061 6.34C120.861 5.71333 121.941 5.4 123.301 5.4C123.861 5.4 124.448 5.46667 125.061 5.6C125.688 5.72 126.248 5.88667 126.741 6.1C126.741 6.96667 126.681 7.93333 126.561 9L125.521 9.16L124.181 7.72C123.835 7.61333 123.328 7.56 122.661 7.56C122.555 7.56 122.341 7.57333 122.021 7.6C121.981 7.68 121.961 7.80667 121.961 7.98C121.961 8.16667 122.015 8.33333 122.121 8.48C122.228 8.61333 122.415 8.76667 122.681 8.94C122.961 9.1 123.401 9.33333 124.001 9.64C124.881 10.0667 125.541 10.44 125.981 10.76C126.435 11.0667 126.748 11.38 126.921 11.7C127.108 12.02 127.201 12.4067 127.201 12.86C127.201 13.9533 126.781 14.8067 125.941 15.42C125.115 16.0333 123.968 16.34 122.501 16.34Z" fill="#3D5BA1"/>
</svg>
